<mxfile host="65bd71144e">
    <diagram id="prtHgNgQTEPvFCAcTncT" name="Page-1">
        <mxGraphModel dx="1598" dy="702" grid="1" gridSize="10" guides="1" tooltips="1" connect="1" arrows="1" fold="1" page="1" pageScale="1" pageWidth="827" pageHeight="1169" math="0" shadow="0">
            <root>
                <mxCell id="0"/>
                <mxCell id="1" parent="0"/>
                <mxCell id="dNxyNK7c78bLwvsdeMH5-19" value="" style="swimlane;html=1;childLayout=stackLayout;resizeParent=1;resizeParentMax=0;horizontal=0;startSize=0;horizontalStack=0;strokeColor=none;" parent="1" vertex="1">
                    <mxGeometry x="110" y="120" width="870" height="770" as="geometry">
                        <mxRectangle x="110" y="120" width="40" height="60" as="alternateBounds"/>
                    </mxGeometry>
                </mxCell>
                <mxCell id="sL7UevDDgPEJGkWVtFz8-2" style="edgeStyle=orthogonalEdgeStyle;rounded=1;orthogonalLoop=1;jettySize=auto;html=1;exitX=0.5;exitY=1;exitDx=0;exitDy=0;entryX=0;entryY=0.5;entryDx=0;entryDy=0;" parent="dNxyNK7c78bLwvsdeMH5-19" source="dNxyNK7c78bLwvsdeMH5-24" target="dNxyNK7c78bLwvsdeMH5-26" edge="1">
                    <mxGeometry relative="1" as="geometry"/>
                </mxCell>
                <mxCell id="sL7UevDDgPEJGkWVtFz8-45" style="edgeStyle=orthogonalEdgeStyle;rounded=0;orthogonalLoop=1;jettySize=auto;html=1;exitX=0.5;exitY=1;exitDx=0;exitDy=0;entryX=0.5;entryY=0;entryDx=0;entryDy=0;" parent="dNxyNK7c78bLwvsdeMH5-19" target="sL7UevDDgPEJGkWVtFz8-44" edge="1" source="sL7UevDDgPEJGkWVtFz8-56">
                    <mxGeometry relative="1" as="geometry">
                        <mxPoint x="560" y="450" as="sourcePoint"/>
                    </mxGeometry>
                </mxCell>
                <mxCell id="sL7UevDDgPEJGkWVtFz8-46" value="Ticket is For Confirmation" style="edgeLabel;html=1;align=center;verticalAlign=middle;resizable=0;points=[];" parent="sL7UevDDgPEJGkWVtFz8-45" connectable="0" vertex="1">
                    <mxGeometry x="-0.0216" relative="1" as="geometry">
                        <mxPoint y="8" as="offset"/>
                    </mxGeometry>
                </mxCell>
                <mxCell id="dNxyNK7c78bLwvsdeMH5-20" value="User" style="swimlane;html=1;startSize=20;horizontal=0;" parent="dNxyNK7c78bLwvsdeMH5-19" vertex="1">
                    <mxGeometry width="870" height="120" as="geometry">
                        <mxRectangle x="20" width="850" height="30" as="alternateBounds"/>
                    </mxGeometry>
                </mxCell>
                <mxCell id="dNxyNK7c78bLwvsdeMH5-24" value="&lt;font color=&quot;#ffffff&quot;&gt;User enrolls via Best Life Website&lt;/font&gt;" style="rounded=0;whiteSpace=wrap;html=1;fontFamily=Helvetica;fontSize=12;fontColor=#000000;align=center;shadow=0;glass=0;strokeColor=#F0F0F0;" parent="dNxyNK7c78bLwvsdeMH5-20" vertex="1">
                    <mxGeometry x="50" y="30" width="80" height="60" as="geometry"/>
                </mxCell>
                <mxCell id="sL7UevDDgPEJGkWVtFz8-22" value="&lt;font color=&quot;#ffffff&quot;&gt;Receive Response&lt;/font&gt;" style="rounded=0;whiteSpace=wrap;html=1;fontFamily=Helvetica;fontSize=12;fontColor=#000000;align=center;strokeColor=#F0F0F0;" parent="dNxyNK7c78bLwvsdeMH5-20" vertex="1">
                    <mxGeometry x="720" y="30" width="80" height="60" as="geometry"/>
                </mxCell>
                <mxCell id="dNxyNK7c78bLwvsdeMH5-21" value="Ops Team" style="swimlane;html=1;startSize=20;horizontal=0;" parent="dNxyNK7c78bLwvsdeMH5-19" vertex="1">
                    <mxGeometry y="120" width="870" height="400" as="geometry"/>
                </mxCell>
                <mxCell id="sL7UevDDgPEJGkWVtFz8-7" style="edgeStyle=orthogonalEdgeStyle;rounded=0;orthogonalLoop=1;jettySize=auto;html=1;exitX=1;exitY=0.5;exitDx=0;exitDy=0;entryX=0;entryY=0.5;entryDx=0;entryDy=0;" parent="dNxyNK7c78bLwvsdeMH5-21" source="dNxyNK7c78bLwvsdeMH5-26" target="sL7UevDDgPEJGkWVtFz8-3" edge="1">
                    <mxGeometry relative="1" as="geometry"/>
                </mxCell>
                <mxCell id="dNxyNK7c78bLwvsdeMH5-26" value="&lt;font color=&quot;#ffffff&quot;&gt;Verifies enrollment via tickets in AirTable&lt;/font&gt;" style="rounded=0;whiteSpace=wrap;html=1;fontFamily=Helvetica;fontSize=12;fontColor=#000000;align=center;strokeColor=#F0F0F0;" parent="dNxyNK7c78bLwvsdeMH5-21" vertex="1">
                    <mxGeometry x="130" y="95" width="80" height="60" as="geometry"/>
                </mxCell>
                <mxCell id="sL7UevDDgPEJGkWVtFz8-11" style="edgeStyle=orthogonalEdgeStyle;rounded=0;orthogonalLoop=1;jettySize=auto;html=1;exitX=1;exitY=0.5;exitDx=0;exitDy=0;entryX=0;entryY=0.5;entryDx=0;entryDy=0;" parent="dNxyNK7c78bLwvsdeMH5-21" source="sL7UevDDgPEJGkWVtFz8-3" target="sL7UevDDgPEJGkWVtFz8-12" edge="1">
                    <mxGeometry relative="1" as="geometry">
                        <mxPoint x="370" y="105" as="targetPoint"/>
                    </mxGeometry>
                </mxCell>
                <mxCell id="sL7UevDDgPEJGkWVtFz8-3" value="&lt;font color=&quot;#ffffff&quot;&gt;Ticket will go through Auditing&lt;/font&gt;" style="rounded=0;whiteSpace=wrap;html=1;fontFamily=Helvetica;fontSize=12;fontColor=#000000;align=center;strokeColor=#F0F0F0;" parent="dNxyNK7c78bLwvsdeMH5-21" vertex="1">
                    <mxGeometry x="253.5" y="95" width="80" height="60" as="geometry"/>
                </mxCell>
                <mxCell id="sL7UevDDgPEJGkWVtFz8-16" style="edgeStyle=orthogonalEdgeStyle;rounded=0;orthogonalLoop=1;jettySize=auto;html=1;exitX=1;exitY=0.5;exitDx=0;exitDy=0;entryX=0;entryY=0.5;entryDx=0;entryDy=0;" parent="dNxyNK7c78bLwvsdeMH5-21" source="sL7UevDDgPEJGkWVtFz8-12" edge="1">
                    <mxGeometry relative="1" as="geometry">
                        <mxPoint x="500" y="125" as="targetPoint"/>
                    </mxGeometry>
                </mxCell>
                <mxCell id="sL7UevDDgPEJGkWVtFz8-17" value="No" style="edgeLabel;html=1;align=center;verticalAlign=middle;resizable=0;points=[];" parent="sL7UevDDgPEJGkWVtFz8-16" connectable="0" vertex="1">
                    <mxGeometry x="-0.4849" y="1" relative="1" as="geometry">
                        <mxPoint x="7" y="1" as="offset"/>
                    </mxGeometry>
                </mxCell>
                <mxCell id="sL7UevDDgPEJGkWVtFz8-12" value="Elligible?" style="rhombus;whiteSpace=wrap;html=1;" parent="dNxyNK7c78bLwvsdeMH5-21" vertex="1">
                    <mxGeometry x="370" y="90" width="80" height="70" as="geometry"/>
                </mxCell>
                <mxCell id="12" style="edgeStyle=orthogonalEdgeStyle;rounded=1;html=1;exitX=1;exitY=0.5;exitDx=0;exitDy=0;entryX=0;entryY=0.5;entryDx=0;entryDy=0;endArrow=classic;endFill=1;elbow=vertical;" edge="1" parent="dNxyNK7c78bLwvsdeMH5-21" source="sL7UevDDgPEJGkWVtFz8-24" target="11">
                    <mxGeometry relative="1" as="geometry"/>
                </mxCell>
                <mxCell id="17" value="No" style="edgeLabel;html=1;align=center;verticalAlign=middle;resizable=0;points=[];" vertex="1" connectable="0" parent="12">
                    <mxGeometry x="-0.2658" relative="1" as="geometry">
                        <mxPoint as="offset"/>
                    </mxGeometry>
                </mxCell>
                <mxCell id="sL7UevDDgPEJGkWVtFz8-24" value="Are details valid?" style="rhombus;whiteSpace=wrap;html=1;" parent="dNxyNK7c78bLwvsdeMH5-21" vertex="1">
                    <mxGeometry x="500" y="90" width="80" height="70" as="geometry"/>
                </mxCell>
                <mxCell id="sL7UevDDgPEJGkWVtFz8-28" style="edgeStyle=orthogonalEdgeStyle;rounded=0;orthogonalLoop=1;jettySize=auto;html=1;exitX=0.5;exitY=1;exitDx=0;exitDy=0;entryX=0.5;entryY=0;entryDx=0;entryDy=0;" parent="dNxyNK7c78bLwvsdeMH5-21" source="sL7UevDDgPEJGkWVtFz8-24" edge="1">
                    <mxGeometry relative="1" as="geometry">
                        <mxPoint x="540" y="215" as="targetPoint"/>
                    </mxGeometry>
                </mxCell>
                <mxCell id="sL7UevDDgPEJGkWVtFz8-29" value="Yes" style="edgeLabel;html=1;align=center;verticalAlign=middle;resizable=0;points=[];" parent="sL7UevDDgPEJGkWVtFz8-28" connectable="0" vertex="1">
                    <mxGeometry x="-0.2446" relative="1" as="geometry">
                        <mxPoint as="offset"/>
                    </mxGeometry>
                </mxCell>
                <mxCell id="sL7UevDDgPEJGkWVtFz8-41" style="edgeStyle=orthogonalEdgeStyle;rounded=0;orthogonalLoop=1;jettySize=auto;html=1;exitX=0.5;exitY=1;exitDx=0;exitDy=0;entryX=0.5;entryY=0;entryDx=0;entryDy=0;" parent="dNxyNK7c78bLwvsdeMH5-21" source="sL7UevDDgPEJGkWVtFz8-32" edge="1">
                    <mxGeometry relative="1" as="geometry">
                        <mxPoint x="540" y="305" as="targetPoint"/>
                    </mxGeometry>
                </mxCell>
                <mxCell id="sL7UevDDgPEJGkWVtFz8-32" value="&lt;font color=&quot;#ffffff&quot;&gt;Enrollment Reprocessing&lt;/font&gt;" style="rounded=0;whiteSpace=wrap;html=1;fontFamily=Helvetica;fontSize=12;fontColor=#000000;align=center;strokeColor=#F0F0F0;" parent="dNxyNK7c78bLwvsdeMH5-21" vertex="1">
                    <mxGeometry x="500" y="215" width="80" height="60" as="geometry"/>
                </mxCell>
                <mxCell id="sL7UevDDgPEJGkWVtFz8-56" value="Issue?" style="rhombus;whiteSpace=wrap;html=1;" parent="dNxyNK7c78bLwvsdeMH5-21" vertex="1">
                    <mxGeometry x="500" y="305" width="80" height="70" as="geometry"/>
                </mxCell>
                <mxCell id="4" value="&lt;font color=&quot;#ffffff&quot;&gt;Create Elligible&lt;br&gt;Member Record&lt;/font&gt;" style="rounded=0;whiteSpace=wrap;html=1;fontFamily=Helvetica;fontSize=12;fontColor=#000000;align=center;strokeColor=#F0F0F0;" vertex="1" parent="dNxyNK7c78bLwvsdeMH5-21">
                    <mxGeometry x="500" y="20" width="80" height="60" as="geometry"/>
                </mxCell>
                <mxCell id="7" style="edgeStyle=orthogonalEdgeStyle;html=1;exitX=0.5;exitY=0;exitDx=0;exitDy=0;entryX=0;entryY=0.5;entryDx=0;entryDy=0;" edge="1" parent="dNxyNK7c78bLwvsdeMH5-21" source="sL7UevDDgPEJGkWVtFz8-12" target="4">
                    <mxGeometry relative="1" as="geometry">
                        <mxPoint x="410" y="50" as="targetPoint"/>
                    </mxGeometry>
                </mxCell>
                <mxCell id="9" value="Yes" style="edgeLabel;html=1;align=center;verticalAlign=middle;resizable=0;points=[];" vertex="1" connectable="0" parent="7">
                    <mxGeometry x="0.2558" relative="1" as="geometry">
                        <mxPoint as="offset"/>
                    </mxGeometry>
                </mxCell>
                <mxCell id="11" value="&lt;font color=&quot;#ffffff&quot;&gt;Create Inelligible&lt;br&gt;Member Record&lt;/font&gt;" style="rounded=0;whiteSpace=wrap;html=1;fontFamily=Helvetica;fontSize=12;fontColor=#000000;align=center;strokeColor=#F0F0F0;" vertex="1" parent="dNxyNK7c78bLwvsdeMH5-21">
                    <mxGeometry x="630" y="95" width="80" height="60" as="geometry"/>
                </mxCell>
                <mxCell id="13" style="edgeStyle=orthogonalEdgeStyle;rounded=1;html=1;exitX=1;exitY=0.5;exitDx=0;exitDy=0;endArrow=classic;endFill=1;elbow=vertical;entryX=0.5;entryY=1;entryDx=0;entryDy=0;" edge="1" parent="dNxyNK7c78bLwvsdeMH5-21" source="11" target="sL7UevDDgPEJGkWVtFz8-14">
                    <mxGeometry relative="1" as="geometry">
                        <mxPoint x="710" y="124.91666666666674" as="targetPoint"/>
                    </mxGeometry>
                </mxCell>
                <mxCell id="16" value="" style="edgeStyle=orthogonalEdgeStyle;rounded=1;html=1;exitX=1;exitY=0.5;exitDx=0;exitDy=0;endArrow=none;endFill=0;elbow=vertical;" edge="1" parent="dNxyNK7c78bLwvsdeMH5-21" source="4" target="sL7UevDDgPEJGkWVtFz8-14">
                    <mxGeometry relative="1" as="geometry">
                        <mxPoint x="710" y="290" as="sourcePoint"/>
                        <mxPoint x="890" y="330" as="targetPoint"/>
                    </mxGeometry>
                </mxCell>
                <mxCell id="sL7UevDDgPEJGkWVtFz8-14" value="&lt;font color=&quot;#ffffff&quot;&gt;Send Response via Zendesk&lt;/font&gt;" style="rounded=0;whiteSpace=wrap;html=1;fontFamily=Helvetica;fontSize=12;fontColor=#000000;align=center;strokeColor=#F0F0F0;" parent="dNxyNK7c78bLwvsdeMH5-21" vertex="1">
                    <mxGeometry x="720" y="20" width="80" height="60" as="geometry"/>
                </mxCell>
                <mxCell id="dNxyNK7c78bLwvsdeMH5-22" value="Maxicare" style="swimlane;html=1;startSize=20;horizontal=0;" parent="dNxyNK7c78bLwvsdeMH5-19" vertex="1">
                    <mxGeometry y="520" width="870" height="250" as="geometry"/>
                </mxCell>
                <mxCell id="sL7UevDDgPEJGkWVtFz8-44" value="&lt;font color=&quot;#ffffff&quot;&gt;Maxicare Endorsement&lt;/font&gt;" style="rounded=0;whiteSpace=wrap;html=1;fontFamily=Helvetica;fontSize=12;fontColor=#000000;align=center;strokeColor=#F0F0F0;" parent="dNxyNK7c78bLwvsdeMH5-22" vertex="1">
                    <mxGeometry x="500" y="50" width="80" height="60" as="geometry"/>
                </mxCell>
                <mxCell id="sL7UevDDgPEJGkWVtFz8-34" value="TC" style="swimlane;html=1;startSize=20;horizontal=0;" parent="dNxyNK7c78bLwvsdeMH5-22" vertex="1">
                    <mxGeometry y="130" width="870" height="120" as="geometry"/>
                </mxCell>
                <mxCell id="sL7UevDDgPEJGkWVtFz8-35" value="&lt;font color=&quot;#ffffff&quot;&gt;Verify Risk Factor via Teleconsultation&lt;/font&gt;" style="rounded=0;whiteSpace=wrap;html=1;fontFamily=Helvetica;fontSize=12;fontColor=#000000;align=center;strokeColor=#F0F0F0;" parent="sL7UevDDgPEJGkWVtFz8-34" vertex="1">
                    <mxGeometry x="620" y="40" width="90" height="60" as="geometry"/>
                </mxCell>
                <mxCell id="sL7UevDDgPEJGkWVtFz8-47" style="edgeStyle=orthogonalEdgeStyle;orthogonalLoop=1;jettySize=auto;html=1;exitX=0;exitY=0.5;exitDx=0;exitDy=0;entryX=0.5;entryY=1;entryDx=0;entryDy=0;rounded=1;" parent="dNxyNK7c78bLwvsdeMH5-19" source="sL7UevDDgPEJGkWVtFz8-44" target="sL7UevDDgPEJGkWVtFz8-3" edge="1">
                    <mxGeometry relative="1" as="geometry"/>
                </mxCell>
                <mxCell id="sL7UevDDgPEJGkWVtFz8-58" style="edgeStyle=orthogonalEdgeStyle;rounded=1;orthogonalLoop=1;jettySize=auto;html=1;exitX=0;exitY=0.5;exitDx=0;exitDy=0;entryX=0.5;entryY=1;entryDx=0;entryDy=0;" parent="dNxyNK7c78bLwvsdeMH5-19" source="sL7UevDDgPEJGkWVtFz8-35" target="sL7UevDDgPEJGkWVtFz8-3" edge="1">
                    <mxGeometry relative="1" as="geometry">
                        <mxPoint x="330" y="320" as="targetPoint"/>
                    </mxGeometry>
                </mxCell>
                <mxCell id="sL7UevDDgPEJGkWVtFz8-38" style="rounded=1;orthogonalLoop=1;jettySize=auto;html=1;exitX=1;exitY=0.5;exitDx=0;exitDy=0;entryX=0.5;entryY=0;entryDx=0;entryDy=0;elbow=vertical;edgeStyle=orthogonalEdgeStyle;" parent="dNxyNK7c78bLwvsdeMH5-19" target="sL7UevDDgPEJGkWVtFz8-35" edge="1" source="sL7UevDDgPEJGkWVtFz8-56">
                    <mxGeometry relative="1" as="geometry">
                        <mxPoint x="600" y="415" as="sourcePoint"/>
                    </mxGeometry>
                </mxCell>
                <mxCell id="3" value="User is not at risk" style="edgeLabel;html=1;align=center;verticalAlign=middle;resizable=0;points=[];" vertex="1" connectable="0" parent="sL7UevDDgPEJGkWVtFz8-38">
                    <mxGeometry x="0.1469" relative="1" as="geometry">
                        <mxPoint as="offset"/>
                    </mxGeometry>
                </mxCell>
                <mxCell id="14" style="edgeStyle=orthogonalEdgeStyle;rounded=1;html=1;exitX=0.5;exitY=0;exitDx=0;exitDy=0;endArrow=classic;endFill=1;elbow=vertical;" edge="1" parent="dNxyNK7c78bLwvsdeMH5-19" source="sL7UevDDgPEJGkWVtFz8-14" target="sL7UevDDgPEJGkWVtFz8-22">
                    <mxGeometry relative="1" as="geometry"/>
                </mxCell>
            </root>
        </mxGraphModel>
    </diagram>
</mxfile>